<svg xmlns:inkscape="http://www.inkscape.org/namespaces/inkscape" xmlns:sodipodi="http://sodipodi.sourceforge.net/DTD/sodipodi-0.dtd" xmlns="http://www.w3.org/2000/svg" xmlns:svg="http://www.w3.org/2000/svg" viewBox="0 0 455.91944 56.12528" version="1.1" id="svg97" sodipodi:docname="logo-text.svg" inkscape:version="1.1.1 (3bf5ae0d25, 2021-09-20)" width="455.91943" height="56.125278">
  <sodipodi:namedview id="namedview99" pagecolor="#ffffff" bordercolor="#666666" borderopacity="1.0" inkscape:pageshadow="2" inkscape:pageopacity="0.0" inkscape:pagecheckerboard="0" showgrid="false" inkscape:zoom="0.49130298" inkscape:cx="393.85066" inkscape:cy="-58.009012" inkscape:window-width="1600" inkscape:window-height="900" inkscape:window-x="1366" inkscape:window-y="0" inkscape:window-maximized="1" inkscape:current-layer="svg97" fit-margin-top="0" fit-margin-left="0" fit-margin-right="0" fit-margin-bottom="0"/>
  <defs id="defs4">
    <style id="style2">.cls-1{fill:#ad0d11;}.cls-2{fill:#e2dcdc;}.cls-3{fill:#af0c11;}.cls-4{fill:#253f8b;}.cls-5{fill:#253e8a;}.cls-6{fill:#253f8c;}</style>
  </defs>
  <path class="cls-4" d="m 269.71395,24.602914 c 0,6.86598 0,13.71695 0,20.58293 a 2,3.0048081 0 0 0 1.43,3.26022 c 1.5,0.94652 3.1,1.09676 4.6,1.89303 0.18,0.0901 0.43,0 0.57,0.15024 0.54,0.58594 1.35,1.08173 1.2,2.19351 -0.15,1.11178 -1,0.61599 -1.51,0.7512 a 6.54,9.8257226 0 0 1 -2.78,-0.91646 c -3.22,-1.3071 -6.32,-3.125 -9.6,-4.19171 -2.77,-0.91647 -3.16,-2.01322 -3.16,-6.23498 0,-4.22175 -0.18,-8.69892 0.06,-13.01082 0.15,-2.7494 -0.43,-5.54387 0.39,-8.29327 0.55,-1.80288 -0.47,-3.60577 -0.46,-5.46875 0,-2.77945 0,-5.5588897 0,-8.3233197 0,-1.35216 -0.14,-2.23858 -1.26,-2.2536 -1.12,-0.015 -1.65,0.63101 -1.75,2.22355 0,0.4357 0,0.8714 0,1.32212 0,12.1093797 0,24.2187497 0,36.3281297 a 2.63,3.9513227 0 0 0 2.16,4.41707 26.26,39.453131 0 0 0 4.78,1.75781 0.93,1.3972358 0 0 1 1,1.50241 c 0,0.87139 -0.52,1.05168 -1.06,1.11177 -1.92,0.19532 -3.56,-1.30709 -5.32,-2.01322 -3,-1.17187 -5.87,-2.77944 -8.8,-4.16166 a 2.44,3.6658659 0 0 1 -1.85,-3.86118 c -0.07,-3.42548 0.43,-6.79086 0.39,-10.21634 0,-1.92308 -0.66,-3.78606 -0.14,-5.79928 0.13,-0.4958 -0.34,-1.57753 -0.92,-1.75782 -1.66,-0.49579 -3.21,-1.62259 -4.94,-1.65264 -0.89,0 -1.33,0.40565 -1.37,1.86298 -0.12,4.22176 -2,6.80589 -5,6.95613 -3,0.15024 -6,0.16527 -8.75,-1.5024 -2,-1.17188 -4.18,-1.80289 -5.87,-4.02644 a 8.44,12.68029 0 0 1 -1.95,-4.01142 2.27,3.4104572 0 0 1 1.4,-4.4321 c 2.27,-1.09675 4.51,-2.41887 7,-2.2536 a 17.72,26.6226 0 0 0 3.33,-0.48077 1.41,2.1183897 0 0 0 1.3,-2.26863 0.92,1.3822117 0 0 0 -0.05,-0.42067 14,21.033657 0 0 1 -0.18,-4.5072197 c 0,-1.36718 -0.33,-2.13341 -1.29,-1.95312 -3.35,0.58594 -6.63,-0.28546 -9.91,-0.96154 a 11.79,17.713344 0 0 1 -5.81,-4.08654 c -0.15,-0.16526 -0.3,-0.39062 -0.17,-0.72115 0.13,-0.33052998 0.4,-0.34555998 0.65,-0.40564998 1.23,-0.28546 2.39,0.49578998 3.62,0.48076998 4.66,-0.0901 9.32,-0.27043998 14,-0.39062998 10.84,-0.28546 21.69,-0.0901 32.53,-0.0901 h 1 c 2.35,-0.19532 2.49,0 2.49,3.53064998 z m -21.36,-10.72717 V 7.7609643 c 0,-0.96154 -0.18,-1.9982 -0.94,-1.71274 a 21.93,32.947721 0 0 1 -4.64,0.36057 1.13,1.6977166 0 0 0 -1.25,1.71275 c -0.09,2.8395397 -0.19,5.6790797 -0.12,8.4885797 a 1.84,2.7644235 0 0 0 1.42,2.82452 c 1.42,0.73618 2.88,1.1869 4.3,1.83293 0.85,0.40565 1.28,0 1.24,-1.5024 0,-1.96815 0,-3.9363 0,-5.90445 z" id="path80" style="stroke-width:1.22573"/>
  <path class="cls-4" d="m 205.02395,38.109524 v -6.34014 c 0,-1.71275 -0.5,-2.494 -1.67,-2.56912 a 14.19,21.319114 0 0 1 -4.24,-1.02163 c -0.95,-0.49579 -1.4,0.88642 -1.87,1.90805 a 10,15.024041 0 0 1 -6.74,6.98618 c -0.48,0.12019 -0.94,0.39063 -1.42,0.46575 -0.48,0.0751 -1.49,-0.0751 -1.56,1.03666 0,0.88641 0.75,1.5024 1.36,1.66766 a 72.48,108.89425 0 0 1 7.24,3.68089 c 3.4,1.77284 6.83,3.45553 10.21,5.33354 2.25,1.26202 4.56,2.35877 6.81,3.66586 0.48,0.27044 1,0.4357 0.85,1.41226 -0.15,0.97657 -0.63,0.78125 -1.08,0.78125 a 11.94,17.938705 0 0 1 -4.19,-1.66766 c -3.25,-1.83294 -6.55,-3.53065 -9.89,-4.92789 -2.1,-0.88642 -4,-2.62921 -6.12,-3.26022 -4.08,-1.23197 -7.85,-3.86117 -11.78,-5.7542 a 47.52,71.394241 0 0 1 -6.26,-3.32032 26,39.062506 0 0 0 -3.88,-1.77283 c -1.38,-0.58594 -2.77,-1.23197 -4.14,-1.89303 -0.47,-0.21034 -1,-0.4958 -0.89,-1.50241 0.11,-1.00661 0.66,-0.91646 1.17,-0.90144 a 18.42,27.674283 0 0 1 2.78,0 4.17,6.265025 0 0 0 5,-4.50721 c 1.23,-5.21334 4.08,-6.28005 7.16,-6.35517 2.16,0 4.3,-1.247 6.51,-0.22536 a 0.87,1.3070915 0 0 0 1,-1.00661 0.74,1.111779 0 0 0 0,-0.39063 V 8.9929343 c 0,-1.17188 -0.51,-1.5024 -1.14,-1.5024 a 6.71,10.081131 0 0 0 -2.33,0 7.63,11.463343 0 0 1 -4,-0.15024 c -2.53,-0.72116 -5.08,-0.15025 -7.64,-0.8113 a 19,28.545677 0 0 1 -7.22,-4.07152 c -0.25,-0.25541 -0.47,-0.54086 -0.29,-1.0667 a 0.61,0.91646648 0 0 1 0.62,-0.42067998 c 15.18,0.58593998 30.37,0.10516998 45.55,0.24038998 1.05,0 1.7,0.22536 1.17,2.16346 a 4.12,6.1899048 0 0 0 0,2.17848 V 44.900394 c 0,3.00481 0.27,3.39543 2.1,4.20673 1.83,0.8113 3.57,1.75781 5.34,2.67428 0.33,0.18029 0.89,0.30048 0.78,1.03666 a 1.15,1.7277647 0 0 1 -0.92,1.27704 3.35,5.0330536 0 0 1 -1.72,-0.15024 101.79,152.92971 0 0 0 -10.58,-5.1232 21.89,32.887625 0 0 1 -3.5,-2.11839 c -0.56,-0.34555 -0.59,-1.05168 -0.59,-1.81791 0.02,-2.2536 0.01,-4.50721 0.01,-6.77584 z m 0,-22.53606 V 8.5872843 c 0,-2.46394 -0.22,-2.86959 -1.87,-2.55409 a 20.13,30.243394 0 0 1 -3.47,0.40565 c -0.89,0 -1.19,0.64604 -1.19,1.89303 q 0,7.0913497 0,14.1977197 a 1.41,2.1183897 0 0 0 1.59,2.4339 c 1.21,0 2.44,0 3.65,0 0.94,0 1.32,-0.58594 1.3,-1.96815 0,-2.4339 0,-4.94291 0,-7.42188 z" id="path82" style="stroke-width:1.22573"/>
  <path class="cls-5" d="m 328.33395,35.585484 c 0,3.51563 0.08,6.28005 0,9.01443 -0.08,1.9381 0.49,2.77944 1.6,3.59074 1.72,1.26202 3.63,1.42729 5.39,2.4339 0.62,0.34555 1.18,0.63101 0.93,1.75781 -0.25,1.1268 -0.79,1.29207 -1.53,0.94651 -4.87,-2.3137 -9.78,-4.38702 -14.56,-7.0613 -1.67,-0.94651 -1.23,-3.41045 -1.18,-5.09315 0.17,-4.50721 0,-9.01442 0.1,-13.52163 a 1.23,1.847957 0 0 0 -1,-1.92308 c -1.48,-0.63101 -2.9,-1.5024 -4.43,-1.92308 -3.07,-0.88641 -6,-2.76442 -9,-3.65084 a 40.92,61.478374 0 0 0 -12.41,-1.17187 c -3.06,0.52584 -6.29,1.5024 -8.73,4.95793 -0.6,0.85637 -0.67,1.75781 0.16,2.16346 1.68,0.79628 3.39,1.9982 5,-0.46574 a 5.17,7.767429 0 0 1 2.45,-1.29207 30.66,46.063709 0 0 1 7.49,-2.19351 14.86,22.325724 0 0 1 5.51,1.5024 29.47,44.275848 0 0 0 4.95,2.40385 c 3.64,1.05168 4.09,8.1881 2.56,11.56851 -1.92,4.20673 -4.7,6.00962 -8,6.59556 -3.84,0.70613 -7.68,0.93149 -11.37,-1.00662 -2.74,-1.5024 -5.5,-2.67427 -8.24,-4.07151 -3,-1.5024 -5.92,-3.09495 -8.88,-4.64243 a 3.53,5.3034864 0 0 1 -0.56,-0.21034 c -0.58,-0.48077 -1.44,-0.76622 -1.14,-2.10336 a 1.26,1.8930291 0 0 1 1.74,-0.96154 c 1.14,0.63101 2.31,0.96154 3.45,1.5024 4.53,2.16347 8.95,4.86779 13.6,6.40025 a 16.5,24.789667 0 0 0 10,-1.83294 5.4,8.112982 0 0 0 2.7,-4.86779 2,3.0048081 0 0 0 -2.32,-3.92127 c -2.91,0.6911 -5.87,1.38221 -8,4.85276 a 1.69,2.5390629 0 0 1 -2,0.54087 c -4.18,-2.88462 -8.78,-3.77103 -13.07,-6.00962 -1.23,-0.64603 -2.49,-1.11178 -3.75,-1.60757 -1.67,-0.64603 -2,-1.80288 -1.05,-3.90625 a 11.7,17.578128 0 0 1 6.06,-6.47536 35.56,53.425489 0 0 1 7.27,-2.65926 13.84,20.793272 0 0 1 3.4,0.24039 c 2.22,0.40565 4.45,0 6.68,0.55589 1.33,0.33053 2.63,0.82632 4,1.14182 1.56,0.36058 2.16,-0.19531 2.34,-2.55408 0.14,-1.84796 -0.34,-3.5757197 -0.36,-5.3936297 0,-0.90145 -0.52,-1.11178 -1.07,-1.11178 -4.67,0 -9.33,0.27043 -14,0.90144 a 27.93,41.962146 0 0 1 -6.26,-0.48077 32.65,49.053493 0 0 1 -5.79,-1.75781 23.07,34.660462 0 0 1 -3.63,-2.55409 c -0.43,-0.34555 -1,-0.78125 -0.82,-1.60756998 0.18,-0.82632 0.76,-0.55589 1.14,-0.48077 a 99.06,148.82815 0 0 0 13.67,0.72115 c 3.17,0 6.35,0.1202 9.53,0 4.22,-0.18028 8.44,0.13521998 12.67,0 4.23,-0.13521 8.61,0 12.91,0 a 4.8,7.2115395 0 0 0 2.7,-0.60096 1,1.5024041 0 0 1 1.41,0.4958 c 0.34,1.17186998 -0.48,1.00660998 -0.83,1.30708998 a 9.3,13.972358 0 0 1 -4,1.29206 c -2.35,0.33053 -4.7,0.99159 -7.08,1.09676 a 1.33,1.9981974 0 0 0 -1.39,2.28365 c 0,3.6508497 -0.06,7.3016897 0,10.9375097 a 2.28,3.4254813 0 0 0 1.83,3.45552 12.17,18.284258 0 0 1 2.17,1.26202 c 1.38,0.94652 1.79,0.69111 1.83,-1.5024 0,-1.77284 0.66,-1.69772 1.44,-1.29207 2.05,1.06671 4.07,2.22356 6.13,3.23017 a 2,3.0048081 0 0 1 1.6,2.92969 c 0.18,3.41046 -0.08,6.98618 0.04,9.82572 z" id="path84" style="stroke-width:1.22573"/>
  <path class="cls-4" d="m 70.933949,2.6077143 c 3.67,0 7.34,0.24039 11,0 8.9,-0.6911 17.8,-0.22536 26.690001,-0.45072 1.33,0 1.67,0.40565 1.67,2.55409 0,5.13822 -0.1,10.2764397 0.09,15.4296897 0.11,3.00481 0.61,6.14483 -0.11,9.19471 -0.39,1.71274 0.29,3.42548 0.27,5.16827 0,4.23678 0,8.45854 0,12.69532 a 1.77,2.6592552 0 0 0 1.53,3.0048 c 1.86,0.76623 3.66,1.80289 5.5,2.70433 0.43,0.21034 0.91,0.36058 0.87,1.20192 -0.04,0.84135 -0.61,0.94652 -1.11,1.00661 a 6.27,9.4200735 0 0 1 -2.7,-0.76622 c -3.8,-2.10337 -7.72,-3.72596 -11.63,-5.28846 a 1.77,2.6592552 0 0 1 -1.55,-3.00481 c 0,-3.29027 -0.06,-6.58053 0,-9.85577 a 1.58,2.3737984 0 0 0 -1.45,-2.7494 15.85,23.813104 0 0 0 -8.330001,1.5024 2.6,3.9062506 0 0 0 -1.4,2.86959 c -0.34,1.81791 -1,2.61419 -2.35,1.81791 -5.86,-3.48557 -12,-6.00961 -17.85,-9.66046 -0.87,-0.54086 -1.9,-0.39062 -2.77,-1.17187 -0.42,-0.3756 -0.73,-0.8113 -0.68,-1.5024 0.08,-0.96154 0.67,-0.72116 1.06,-0.64604 a 22.57,33.90926 0 0 0 3.76,-0.52584 c 1,0 1.41,-1.42728 2,-2.35877 0.26,-0.42068 -0.14,-0.85637 -0.45,-1.17188 a 9.65,14.498199 0 0 0 -2.37,-1.65264 q -3.87,-1.77284 -7.73,-3.60577 a 9.51,14.287863 0 0 1 -0.9,-0.69111 c -0.28,-0.19531 -0.59,-0.45072 -0.53,-0.93149 0.06,-0.48077 0.53,-0.48077 0.85,-0.49579 0.73,0 1.46,0 2.19,0 a 2.12,3.1850966 0 0 0 1.83,-1.59255 c 1.05,-3.125 3,-3.38041 5,-3.60577 0.78,-0.0901 1.56,0 2.34,0 0.42,0 0.82,-0.2253597 0.85,-0.9465197 0.03,-0.72115 -0.35,-1.17187 -0.85,-1.17187 h -3.81 a 21.5,32.301687 0 0 1 -10.26,-3.09495 c -0.52,-0.42068 -1.45,-0.64604 -1.26,-1.77284 0.19,-1.1268 1,-0.33053 1.54,-0.34555 3.67,-0.1202 7.38,-0.0901 11.05,-0.0901 z M 101.12395,17.075864 c 0,-2.19351 0,-4.38702 0,-6.5655 0.05,-1.8930297 -0.32,-2.7944697 -1.740001,-2.7343797 -1,0 -2,0.51082 -3,0.58594 a 1.34,2.0132215 0 0 0 -1.25,1.8329297 c 0.05,3.45553 -0.5,6.95613 0.31,10.36659 0.67,2.82452 0,4.28185 -2,3.83113 a 35.85,53.861186 0 0 0 -7.68,0 12.11,18.194113 0 0 0 -7.7,5.09315 c -0.43,0.58594 -0.63,1.05168 -0.19,1.80289 1.1,1.878 4.34,2.17848 5.43,0.3155 1.57,-2.67428 3.61,-3.35036 5.83,-3.57572 3.63,-0.36058 7.07,1.23197 10.57,2.22356 1.450001,0.40565 1.930001,0 1.750001,-2.28366 a 62.16,93.389437 0 0 1 -0.27,-10.84735 z m -15.000001,0.10517 c 0,-2.65925 -0.63,-3.63582 -2.41,-3.65084 h -1.75 a 0.78,1.1718752 0 0 0 -0.9,0.87139 c -0.68,4.50722 -3.21,4.73258 -5.58,5.31851 -0.32,0.0901 -0.7,-0.15024 -0.92,0.40565 a 0.39,0.58593759 0 0 0 0.1,0.78125 1,1.5024041 0 0 0 1.07,0.36058 31.71,47.641233 0 0 1 9.16,-2.49399 c 0.72,0 1.26,-0.30048 1.23,-1.59255 z m -2.62,-5.52885 v 0 a 9.54,14.332935 0 0 0 1.31,0 c 0.63,-0.13521 1.2,-0.78125 1.19,-1.62259 -0.01,-0.8413497 -0.68,-1.2469997 -1.31,-1.2319697 -0.63,0.015 -1.28,-0.0751 -1.9,0 -0.62,0.0751 -1.63,-0.67608 -1.63,1.2169397 0,1.60758 0.92,1.41226 1.59,1.6226 a 3.87,5.8143037 0 0 0 0.76,0 z" id="path86" style="stroke-width:1.22573"/>
  <path class="cls-6" d="m 51.623949,26.420824 c 0,7.0012 0,14.01743 0,21.03365 a 2.23,3.3503611 0 0 0 1.54,3.47056 45.24,67.96876 0 0 0 5.09,2.52404 c 0.09,0 0.23,0 0.29,0 0.42,0.58593 1.41,0.54086 1.27,1.75781 -0.14,1.21695 -1.07,0.93149 -1.59,0.76622 a 38.34,57.602172 0 0 1 -5.59,-2.22355 c -2.77,-1.57753 -5.63,-2.58414 -8.46,-3.83113 a 1.86,2.7944716 0 0 1 -1.62,-3.00481 c 0,-3.42548 -0.05,-6.85096 0,-10.27645 a 1.22,1.832933 0 0 0 -1.14,-2.08834 15.4,23.137023 0 0 0 -7.48,0.4357 3.82,5.7391835 0 0 0 -2.18,3.00481 c -0.82,2.23858 -1.89,3.07993 -3.33,2.07332 -2.71,-1.92308 -5.63,-3.00481 -8.44,-4.50722 -2.81,-1.5024 -5.45,-3.29026 -8.18,-4.92788 a 29.74,44.681497 0 0 0 -3.07,-1.29207 c -0.53,-0.24038 -1,-0.55589 -1,-1.38221 0,-0.82632 0.67,-0.79628 1.13,-0.8714 1.57,-0.2554 3.22,0.61599 4.72,-0.78125 0.59,-0.55588 1.29,-0.99158 1.28,-2.14843 -0.01,-1.15685 -0.85,-0.99159 -1.32,-1.39724 -3,-2.61418 -6.53,-3.39543 -9.74,-5.30349 -0.48,-0.27043 -1.08,-0.46574 -1,-1.27704 0.08,-0.8113 0.72,-0.40565 1.12,-0.45072 a 6,9.0144244 0 0 1 1.47,0 2.52,3.7860583 0 0 0 3,-2.50901 1.89,2.8395437 0 0 1 1.86,-1.96815 c 0.53,0 1.29,-0.58594 1.27,-1.5024097 -0.02,-0.91646 -0.78,-0.73618 -1.23,-0.79627 -1.57,-0.18029 -3.09,-0.90144 -4.67,-1.17188 a 14.91,22.400845 0 0 1 -5.26000004,-3.00481 0.52,0.78125012 0 0 1 -0.36,-0.84134 c 0,-0.58594 0.35,-0.63101 0.64,-0.58594 3.26000004,0.18029 6.52000004,-0.3155 9.78000004,0.28546 a 30.55,45.898444 0 0 0 4.87,-0.15024 c 0.53,0 1.06,-0.15024 1.6,-0.15024 h 32.54 c 2.2,-0.1202 2.2,-0.1202 2.2,3.35036 z m -21.06,-2.04327 c -4,0.54086 -8,0.97656 -11.14,5.4988 -1,1.5024 -1,1.99819 0.25,2.82452 a 15.9,23.888225 0 0 0 1.86,1.17187 c 0.94,0.42067 1.84,0.64603 2.58,-0.84135 1.18,-2.35877 2.87,-3.15504 4.72,-3.89122 2,-0.79628 3.95,0.3756 5.92,0.12019 a 13,19.531253 0 0 1 5.76,1.84796 c 1.32,0.7512 2,0.25541 2,-1.81791 0,-3.38041 0,-6.77584 0,-10.14123 0,-2.07332 -0.27,-4.17668 -0.23,-6.28005 0.09,-4.1766797 0.12,-4.1616597 -2.69,-4.0564897 -2.59,0.10517 -3.19,1.08173 -2.92,4.8227197 a 5.93,8.9092561 0 0 1 0,1.09675 39.43,59.239792 0 0 0 0.23,6.70073 c 0.39,3.0048 -0.92,4.58233 -2.84,3.53065 a 12.64,18.990387 0 0 0 -3.46,-0.58594 z m -3.31,-7.18149 c 0,-2.29868 -0.89,-3.53065 -2.31,-3.10998 a 2,3.0048081 0 0 1 -1.09,0 c -0.79,-0.34555 -1.31,-0.0901 -1.61,1.38221 a 3.65,5.4837748 0 0 1 -2.51,3.86118 8.79,13.206132 0 0 1 -2.82,0.84135 0.71,1.0667069 0 0 0 -0.78,0.96153 v 0 c 0,0.52585 0.48,0.63101 0.83,0.61599 a 2.55,3.8311304 0 0 0 0.73,-0.0901 23.51,35.32152 0 0 1 7.67,-1.77284 c 1.29,0.0751 2.07,-0.64603 1.89,-2.6893 z m -2.44,-4.50722 a 2.58,3.8762025 0 0 0 2,-0.78125 c 0.54,-0.66105 0.58,-1.5024 -0.19,-1.75781 a 16.79,25.225364 0 0 0 -3.16,-0.5108197 1,1.5024041 0 0 0 -1.12,1.2169497 0.2,0.30048081 0 0 0 0,0.10517 c -0.09,1.17187 0.48,1.17187 1,1.41226 a 4.45,6.6856981 0 0 0 1.54,0.3155 z" id="path88" style="stroke-width:1.22573"/>
  <path class="cls-4" d="m 403.49395,1.1503843 a 2.46,3.695914 0 0 1 1.69,-0.40564998 c 5.32,0 10.65,-0.19531 16,0 3.78,0.18029 7.54,-0.21034 11.33,0.12019 2.88,0.25540998 5.81,0.36057998 8.71,0.25540998 2,0 3.92,-0.34554998 5.87,-0.42066998 1.95,-0.0751 1.84,0 1.84,2.86958998 V 44.284404 c 0,3.9964 0.23,4.50721 2.71,5.48378 a 17.36,26.081735 0 0 1 3.29,1.62259 c 0.67,0.4958 1.17,0.85637 0.92,1.96815 -0.25,1.11178 -1.12,0.90144 -1.64,0.66106 -2,-0.87139 -3.85,-1.98317 -5.79,-2.89964 a 18.83,28.290269 0 0 0 -3.25,-1.80289 c -1,-0.19531 -1.91,-0.79627 -2.42,1.35217 -0.2,0.84134 -1.06,1.02163 -1.82,0.58594 -2.52,-1.41226 -5.09,-2.68931 -7.61,-4.11659 -3.81,-2.17849 -7.76,-3.83113 -11.55,-6.12981 -4.21,-2.56911 -8.57,-4.50721 -12.82,-6.85096 -2.46,-1.38221 -4.87,-3.21515 -6.1,-7.16647 a 3.66,5.4987989 0 0 1 1.06,-6.79087 11.68,17.54808 0 0 1 4.24,-2.67428 30.7,46.123805 0 0 1 7,-1.5024 c 2.4,0 4.63,1.27704 6.95,1.86298 0.51,0.12019 1,0.51082 1.22,-0.42067 0.22,-0.93149 -0.39,-1.50241 -0.83,-1.75781 a 13,19.531253 0 0 0 -2.52,-1.02164 c -0.54,-0.15024 -1.11,-0.52584 -1,-1.17187 0.11,-0.64604 0.74,-0.90145 1.3,-0.76623 a 14.84,22.295676 0 0 1 3.48,1.5024 c 1.79,1.1869 3.76,1.50241 5.56,2.40385 2.29,1.17188 4.64,1.92308 6.93,3.00481 0.79,0.36058 1.57,0.67608 2.32,1.1268 0.9,0.52584 1.61,-0.10517 1.62,-1.81791 a 59,88.64184 0 0 1 0.27,-9.7806497 c 0.22,-2.6893 -0.39,-3.53065 -2.21,-3.21514 a 130.93,196.70976 0 0 1 -14.42,0.94651 68.87,103.47057 0 0 1 -13.15,-0.99158 16.4,24.639427 0 0 1 -7.18,-4.77765 z m 24.26,34.2397897 c -2.94,0.67608 -5.76,-1.77284 -8.71,-3.29027 -1.17,-0.58593 -1.84,-3.27524 -1.49,-5.24339 0.35,-1.96815 1.44,-1.9381 2.48,-1.90805 a 7.45,11.19291 0 0 1 2.12,-0.13522 c 0.62,0.25541 1.27,-0.28545 1.28,-1.71274 0.01,-1.42728 -0.28,-1.77283 -1.17,-1.77283 -3.08,0 -6.09,0.0751 -8.88,2.53906 -1.59,1.41226 -2.35,2.62921 -2.25,4.98798 0.09,1.98317 1.14,3.41046 2.67,4.34195 2,1.21695 4.13,2.01322 6.11,3.38041 3.46,2.34375 7.21,3.63582 10.68,6.08473 2.25,1.50241 4.75,2.34376 7.09,3.65085 2.18,1.23197 2.15,1.33714 2.15,-2.13342 v -18.02885 c 0,-0.99158 0,-1.86298 -0.82,-2.23858 -1.38,-0.63101 -2.74,-1.42728 -4.12,-1.9982 -0.88,-0.3756 -1.52,0 -1.48,1.69772 a 33.94,50.991594 0 0 1 0,6.77584 c -0.2,3.36539 -1.36,5.22837 -3.37,5.00301 -0.64,0 -1.28,0 -2.28,0 z" id="path90" style="stroke-width:1.22573"/>
  <path class="cls-4" d="m 370.51395,6.4388443 c -2.74,0.58594 -5.87,-0.58593 -8.93,-2.22356 a 25.71,38.626809 0 0 1 -3.31,-2.65925 c -0.22,-0.18029 -0.42,-0.40565 -0.24,-0.84134998 a 0.89,1.3371396 0 0 1 1,-0.67608 c 4.27,1.60756998 8.61,0.58594 12.91,0.66106 9.23,0.18029 18.46,0 27.69,0 1.52,0 2.13,1.06670998 1.71,3.23016998 a 5.78,8.6838955 0 0 0 -0.22,2.56911 V 44.344504 c 0,3.66586 0.16,3.89122 2.53,5.01803 a 27.47,41.27104 0 0 1 4.8,2.34375 c 0.39,0.33053 1,0.51081 0.85,1.5024 -0.15,0.99159 -0.78,0.85637 -1.33,0.90144 a 7,10.516828 0 0 1 -2.35,-0.96153 c -4.14,-1.87801 -8.21,-4.01142 -12.34,-6.00962 a 1.56,2.3437503 0 0 1 -1.28,-2.70433 c 0.14,-3.00481 -0.12,-6.08473 0.28,-9.13461 0.36,-2.77945 -0.2,-3.48558 -2.1,-3.54568 -1.9,-0.0601 -3.52,-0.76622 -5.34,0 a 5.2,7.8125012 0 0 0 -3.47,3.5607 c -1.1,2.77945 -1.93,3.33534 -3.76,1.86298 -2.5,-2.01322 -5.29,-2.71935 -7.88,-4.3119 -3.89,-2.3738 -7.86,-4.50721 -11.79,-6.6857 -0.33,-0.18029 -0.72,-0.3155 -0.67,-0.96154 a 0.87,1.3070915 0 0 1 0.78,-1.1268 6.7,10.066107 0 0 1 2.32,0 3.05,4.5823324 0 0 0 3.08,-1.14183 c 2.46,-3.68089 5.58,-4.64243 8.78,-5.7542 1.23,-0.4357 2.46,0.42067 3.65,-0.55589 0.45,-0.3756 1,-0.78125 1,-1.3071 0.12,-2.64423 0.51,-5.3635797 -0.39,-7.9026397 a 1.53,2.2986782 0 0 0 -1.49,-1.05168 c -1.26,0.0601 -2.58,0.0601 -4.49,0.0601 z m 21.52,11.1628697 c 0,-3.12501 0,-6.26503 0,-9.4050497 0,-1.32212 -0.29,-1.83294 -1.18,-1.75782 -1.11,0.0901 -2.21,0.22536 -3.31,0.40565 -1.1,0.18029 -1.45,0.96154 -1.43,2.49399 0,3.2752397 0,6.5655097 0,9.8407497 0,3.27524 -0.18,3.33534 -2.18,3.1851 -0.34,0 -0.66,-0.22536 -1,-0.27044 a 28,42.067314 0 0 0 -9.35,0.99159 c -2,0.72115 -3.08,3.10998 -4.74,4.372 -0.89,0.67608 -0.72,1.68269 0.11,2.20853 a 15.37,23.091951 0 0 1 2.48,1.11178 c 1,0.96154 1.46,0.27043 2.06,-0.66106 a 8,12.019233 0 0 1 5.22,-3.84615 25.78,38.731977 0 0 1 11.52,2.41887 c 1.22,0.73618 1.8,0.0901 1.81,-1.90806 0,-3.09495 0,-6.15985 0,-9.20973 z" id="path92" style="stroke-width:1.22573"/>
  <path class="cls-4" d="m 122.62395,1.6762243 c 2.83,0 5.67,0 8.5,0 1.17,0 2.31,-0.33053 3.47,-0.4357 0.39,0 1,-0.30047998 1.07,0.66106 0.07,0.96154 -0.33,1.14183 -0.73,1.50241 -0.94,0.7512 -1.77,1.84795 -2.69,2.56911 -1.66,1.29207 -2.7,3.74098 -4.5,4.7475897 -1,0.60097 -0.95,2.11839 0,3.00481 a 52.71,79.191718 0 0 0 6.54,5.58895 c 0.59,0.3756 1.24,0.79627 1.27,1.89302 0.03,1.09676 -0.68,1.50241 -1.23,1.92308 -1.68,1.41226 -3.36,2.83955 -5,4.34195 -1.36,1.23197 -1.37,2.64423 0,3.92127 1.37,1.27705 3.09,2.61419 4.66,3.84616 0.57,0.46574 1.24,0.94651 1.31,1.89303 0.07,0.94651 -0.79,1.5024 -1.29,1.80288 -2.23,1.23197 -3.77,3.98137 -5.84,5.5589 -0.67,0.49579 -0.88,1.5024 -0.05,2.17848 1.25,1.11178 2.49,2.22356 3.76,3.30529 0.88,0.73618 2,1.27705 1.65,3.26022 -0.18,1.08173 -2,1.5024 -3,0.7512 -1.46,-1.14183 -2.87,-2.41887 -4.27,-3.71094 -3.75,-3.39543 -7.48,-6.83593 -11.22,-10.24639 -0.47,-0.4357 -1,-0.85637 -0.92,-1.77284 0.08,-0.91647 0.43,-1.17187 0.92,-1.5024 2.24,-1.42729 4.17,-3.66587 6.3,-5.39363 1,-0.76623 0.93,-1.84796 0,-2.88462 a 22.09,33.188106 0 0 0 -3.77,-3.62079 c -1,-0.67609 -1.83,-1.81791 -2.91,-2.3738 -1.08,-0.55589 -1.11,-2.19351 -0.08,-3.00481 2.21,-1.63762 4.09,-4.10156 6.32,-5.67909 0.95,-0.66105 1.06,-1.5024 0.2,-2.34375 a 86.48,129.9279 0 0 0 -7.7,-7.2716297 c -0.51,-0.39063 -1.27,-0.72116 -1.15,-1.72777 0.12,-1.00661 1,-0.6911 1.49,-0.6911 2.92,-0.1202 5.91,-0.0901 8.89,-0.0901 z m 3.55,22.8665897 c 1.07,-0.16526 1.88,-0.46574 2.23,-1.59255 0.42,-1.36718 -0.56,-1.66766 -1.06,-2.16346 -1,-0.96154 -2.07,-1.72776 -3.11,-2.61418 a 1.84,2.7644235 0 0 0 -1.93,0.16526 c -0.78,0.69111 -0.85,1.77284 -0.11,2.38883 0.74,0.61598 1.47,1.89302 2.31,2.52403 0.62,0.46575 1.12,1.50241 1.67,1.29207 z m -3.06,10.36659 a 1.66,2.4939908 0 0 0 -1.59,0.84135 0.75,1.1268031 0 0 0 0.23,1.5024 v 0 a 18,27.043273 0 0 0 4.25,4.04147 c 0.74,0.39062 1.29,-0.40565 1.72,-1.1869 a 0.78,1.1718752 0 0 0 0,-1.65265 l -0.08,-0.10516 c -1.38,-1.50241 -2.71,-3.26022 -4.53,-3.44051 z" id="path94" style="stroke-width:1.22573"/>
<script xmlns=""/></svg>